<svg xmlns="http://www.w3.org/2000/svg" xmlns:xlink="http://www.w3.org/1999/xlink" viewBox="0 0 20 20"><path d="M 1 5 C 1 2.791 2.791 1 5 1 L 8.5 1 C 9.052 1 9.5 1.448 9.5 2 L 9.5 18 C 9.5 18.552 9.052 19 8.5 19 L 5 19 C 2.791 19 1 17.209 1 15 Z" fill="#000"></path><path d="M 10.5 2 C 10.5 1.448 10.948 1 11.5 1 L 15 1 C 17.209 1 19 2.791 19 5 L 19 8.5 C 19 9.052 18.552 9.5 18 9.5 L 11.5 9.5 C 10.948 9.5 10.5 9.052 10.5 8.5 Z" fill="#000" opacity="0.5"></path><path d="M 10.5 11.5 C 10.5 10.948 10.948 10.5 11.5 10.5 L 18 10.5 C 18.552 10.5 19 10.948 19 11.5 L 19 15 C 19 17.209 17.209 19 15 19 L 11.5 19 C 10.948 19 10.5 18.552 10.5 18 Z" fill="#000" opacity="0.5"></path></svg>