<svg xmlns="http://www.w3.org/2000/svg" xmlns:xlink="http://www.w3.org/1999/xlink" viewBox="0 0 24 24"><path d="M 4 7 C 4 5.343 5.343 4 7 4 L 17 4 C 18.657 4 20 5.343 20 7 L 20 17 C 20 18.657 18.657 20 17 20 L 7 20 C 5.343 20 4 18.657 4 17 Z M 8.85 17.393 L 8.85 10.169 L 6.434 10.169 L 6.434 17.393 Z M 7.642 9.182 C 8.484 9.182 9.009 8.628 9.009 7.934 C 8.993 7.225 8.484 6.686 7.658 6.686 C 6.831 6.686 6.291 7.225 6.291 7.934 C 6.291 8.628 6.815 9.182 7.626 9.182 Z M 10.187 17.394 C 10.187 17.394 10.187 17.394 10.187 17.393 L 10.187 17.393 Z M 12.604 17.393 L 12.604 13.359 C 12.604 13.143 12.62 12.928 12.683 12.773 C 12.858 12.342 13.256 11.895 13.923 11.895 C 14.798 11.895 15.148 12.557 15.148 13.529 L 15.148 17.393 L 17.564 17.393 L 17.564 13.251 C 17.564 11.032 16.372 9.999 14.782 9.999 C 13.5 9.999 12.925 10.699 12.604 11.192 L 12.604 10.169 L 10.187 10.169 C 10.219 10.844 10.188 17.351 10.187 17.393 Z" fill="rgb(255, 255, 255)"></path></svg>