<svg id="Layer_1" data-name="Layer 1" xmlns="http://www.w3.org/2000/svg" xmlns:xlink="http://www.w3.org/1999/xlink" viewBox="0 0 689.44 1042.68"><defs><style>.cls-1{fill:#2fb78b;}.cls-2{fill:url(#linear-gradient);}.cls-3{fill:url(#linear-gradient-2);}</style><linearGradient id="linear-gradient" x1="201.41" y1="213.55" x2="847.96" y2="213.55" gradientUnits="userSpaceOnUse"><stop offset="0.07" stop-color="#006838"/><stop offset="0.29" stop-color="#108354"/><stop offset="0.58" stop-color="#219f72"/><stop offset="0.83" stop-color="#2bb184"/><stop offset="1" stop-color="#2fb78b"/></linearGradient><linearGradient id="linear-gradient-2" x1="726.06" y1="353.09" x2="732.38" y2="780.54" gradientUnits="userSpaceOnUse"><stop offset="0" stop-color="#006838"/><stop offset="0.2" stop-color="#036d3d"/><stop offset="0.43" stop-color="#0b7b4c"/><stop offset="0.69" stop-color="#199264"/><stop offset="0.96" stop-color="#2cb286"/><stop offset="1" stop-color="#2fb78b"/></linearGradient></defs><title>Amine logo</title><path class="cls-1" d="M503.34,732.69a38.26,38.26,0,0,1-23.91-3.57c-21.08-10.73-42-21.76-62.94-32.72-3.92-2-7.75-4.24-11.61-6.37-2.82-1.28-5.7-2.47-8.44-3.88q-21.22-11-42.38-22c-6.81-3.58-13.56-7.32-20.34-11-15.71-7.84-31.23-16-45.91-25.63a11.73,11.73,0,0,1-1.72-1.73c-4.3-2.9-8.78-5.6-12.89-8.76a305.7,305.7,0,0,1-35.9-32.92c-.88-1-1.63-2.05-2.44-3.06-8.18-7.93-14.72-17.18-21.29-26.4a280.74,280.74,0,0,1-33.13-61.5c-.46-1.21-.7-2.51-1.06-3.77-3.26-10-7-19.8-9.68-29.92a230.48,230.48,0,0,1-8.12-51c-.43-11.49-1.25-23-.63-34.5a286.23,286.23,0,0,1,21.75-96.08c7.36-17.48,15.59-34.47,26.27-50.18a84.93,84.93,0,0,1,6.24-7.32c-.6,1.64-1.19,3.29-1.8,4.93q-2.16,5.87-4.36,11.74c-4.73,11.42-6.25,23.49-6.66,35.65-.72,21.67,3.78,42.5,11,62.83A84.34,84.34,0,0,0,234,368.3c5.29,5.16,11.12,9.78,16.7,14.62,8.55,7.45,18.46,12.68,28.61,17.48l5.91,2.39,10.91,4.35c3.36,1.63,6.63,3.48,10.11,4.82,23.27,9,47.23,16,71.17,23,5.65,1.65,11.2,3.64,16.81,5.47,5,1.52,10,2.83,14.91,4.62,18.28,6.68,32.56,18.64,44.06,34.1a11.09,11.09,0,0,1,1,2.21c5.7,8.38,9.77,17.55,13.14,27.1,2,5.52,4.5,10.84,6.73,16.26.69,1.66,1.23,3.38,1.83,5.08,5,12.51,9.93,25,14.84,37.54,4.13,10.56,8.16,21.14,12.22,31.72.46,1.21.77,2.49,1.15,3.75,3.11,7.6,6.32,15.15,9.32,22.78q10.23,26.16,20.34,52.38C543.87,704.26,526.9,729,503.34,732.69Z" transform="translate(-160.73 -19.32)"/><path class="cls-2" d="M848,259.43c-2.41-2.16-1.83-5.39-2.85-8-1.36-3.55-2.59-7.17-3.88-10.76a74.13,74.13,0,0,0-10.38-22.47c-6.28-9.45-13.32-18.34-21.84-25.81-5.83-5.13-12.41-9.4-18.86-13.76a88.57,88.57,0,0,0-27.22-12.18c-7.35-1.93-14.79-3.65-22.47-3.93a37.16,37.16,0,0,1-6.19-1.2l-30.69,2.26c-5.57,1.77-11.17,3.41-16.67,5.31a132.33,132.33,0,0,0-27.49,13.69c-6.32,4-12.77,7.76-19.17,11.63s-12.61,7.86-18.84,11.92c-4.3,2.82-8.46,5.86-12.71,8.8-3.91,2.19-7.84,4.37-11.75,6.58-2.38,1.34-4.72,2.77-7.1,4.14l-38.56,23.78c-10.85,6.78-21.67,13.61-32.56,20.34-5.85,3.62-11.79,7.06-17.71,10.58-11.33,7.13-22.65,14.28-34,21.34-5.12,3.18-10.35,6.18-15.54,9.25q-16.9,10.62-33.84,21.23c-1.5.95-3.12,1.7-4.7,2.55-2.88,1.71-5.79,3.31-8.59,5.11-3.25,2.08-6.37,4.34-9.58,6.47a19.33,19.33,0,0,1-2.59,1.25c-5.21,3.32-10.4,6.7-15.64,10-1.66,1-3.42,1.88-5.14,2.83L347.62,375q-9.86,6.08-19.72,12.12l-23.78,14.69-8.89,5.95q-5.46-2.16-10.91-4.36-3-1.19-5.91-2.39c-10.16-4.8-20.06-10-28.61-17.46-5.59-4.86-11.42-9.48-16.71-14.64a84.25,84.25,0,0,1-20.58-32.75c-7.24-20.33-11.75-41.18-11-62.84.41-12.17,1.94-24.24,6.67-35.66q2.19-5.87,4.36-11.74c.6-1.64,1.19-3.28,1.8-4.93l-.1,0,.87-1.05c.41-.64.8-1.27,1.19-1.9.31-.32.63-.65.95-1,2.18-2.7,4.38-5.4,6.57-8.1q8-8.85,16-17.71l21.85-18.76q9.92-6.91,19.88-13.81,10.91-6.9,21.85-13.82c9.32-6,18.62-12,27.95-17.94,3.16-2,6.41-3.86,9.62-5.78,9.5-6.09,18.95-12.25,28.48-18.27,6.78-4.28,13.66-8.39,20.48-12.58,7.54-4.9,15.07-9.83,22.64-14.69C420.66,70.32,428.82,65.15,437,60a22.66,22.66,0,0,1,2.65-1.21A214,214,0,0,1,473.69,41c2.72-1.17,5.52-2.07,8.29-3.08,6.3-2.31,12.53-4.87,18.91-6.88,12.92-4.05,26.22-6.42,39.55-8.65a228.32,228.32,0,0,1,45.07-2.93c8.5.26,17,1.15,25.49,1.95,3.21.31,6.35,1.14,9.55,1.75,7.73,1.44,15.54,2.59,23.19,4.39,6.2,1.46,12.23,3.72,18.32,5.62,6.21,2.08,12.51,3.91,18.59,6.3a265.12,265.12,0,0,1,73.76,44.17q55.38,46.68,79.78,115c6.38,18,10.35,36.62,13.56,55.42A43.93,43.93,0,0,1,848,259.43Z" transform="translate(-160.73 -19.32)"/><path class="cls-3" d="M850,1021c-.29,13.38-5.65,24.62-16.57,32.67-14.56,10.76-32.94,11.16-48,1-16.49-11.14-32.84-22.5-49.23-33.8q-29.65-20.45-59.3-40.93c-5.26-3.64-10.4-7.43-15.61-11.17-10.29-6.22-18.72-14.51-26.14-23.83a114.88,114.88,0,0,1-24.81-58.27c-2-13.48-1.28-27-1-40.55-.08-11-.22-21.91-.23-32.85,0-9.16.15-18.31.23-27.45v-44.5q0-16.82,0-33.63-.12-20.82-.24-41.62c0-2.6.15-5.21.23-7.81V401.14q0-8.43,0-16.82,0-24.22,0-48.45,0-14.34,0-28.69c-.08-10.79-.21-21.59-.21-32.38,0-11.63.13-23.24.2-34.85q-.15-12.9-.31-25.78c4.24-2.94,8.4-6,12.72-8.81,6.21-4,12.55-7.94,18.84-11.9s12.83-7.65,19.16-11.63a132.26,132.26,0,0,1,27.48-13.69c5.5-1.9,11.1-3.56,16.67-5.31l30.69-2.26a41.74,41.74,0,0,0,6.19,1.2c7.68.26,15.12,2,22.49,3.93a88.73,88.73,0,0,1,27.22,12.16c6.43,4.38,13,8.65,18.85,13.76,8.51,7.49,15.57,16.38,21.83,25.83a74.33,74.33,0,0,1,10.4,22.47c1.27,3.58,2.5,7.19,3.86,10.76,1,2.65.44,5.88,2.85,8,.51,6.66,1.28,13.31,1.44,20,.26,9.48.07,19,.08,28.48v28.69c.09,7.5.25,15,.25,22.5,0,8.65-.16,17.3-.26,25.93,0,5.62,0,11.22,0,16.84v34.6c.09,6.85.27,13.69.25,20.54,0,9-.16,17.93-.25,26.91.09,7.17.25,14.34.25,21.52,0,8-.16,16-.25,24,.1,6.52.27,13,.27,19.56,0,9-.17,17.93-.27,26.9v34.63c.1,5.55.28,11.08.27,16.62,0,10.61-.17,21.22-.27,31.82.1,4.9.3,9.78.28,14.67,0,11.58-.18,23.16-.28,34.76v33.63c.1,6.19.3,12.39.28,18.58,0,8.64-.16,17.27-.26,25.92.1,1.79.28,3.57.28,5.37q0,24.76,0,49.54c0,1.79-.18,3.59-.26,5.38.1,7.17.26,14.34.28,21.5,0,6.35-.16,12.71-.26,19.06.1,1.31.28,2.61.28,3.92q0,39.57,0,79.13c0,1.31-.16,2.62-.24,3.92a29.35,29.35,0,0,1,.29,2.93C850.09,991.34,850.33,1006.16,850,1021Z" transform="translate(-160.73 -19.32)"/></svg>