<svg id="Layer_1" data-name="Layer 1" xmlns="http://www.w3.org/2000/svg" viewBox="0 0 30.41 30.44"><defs><style>.cls-1{fill:#21a078;}</style></defs><path class="cls-1" d="M366.06,387.75c1.79.22,2.38,1.77,2.67,3.16,1.06,5.09,3.82,8.28,9.09,9.28,1.52.28,3.55.83,3.36,3-.16,1.77-1.92,2.33-3.33,2.59-5.24,1-8.07,4.12-9.11,9.24-.28,1.38-.82,3.13-2.72,3.14s-2.49-1.72-2.74-3.1c-1-5.44-4.25-8.39-9.57-9.43-1.26-.25-2.7-.83-2.91-2.39s1.15-2.49,2.41-2.72c6-1.09,9.25-4.69,10.42-10.53A2.57,2.57,0,0,1,366.06,387.75Z" transform="translate(-350.78 -387.75)"/></svg>