<svg xmlns="http://www.w3.org/2000/svg" xmlns:xlink="http://www.w3.org/1999/xlink" viewBox="0 0 24 24"><path d="M 23 12 C 23 12 23 15.487 22.54 17.158 C 22.285 18.082 21.544 18.804 20.595 19.052 C 18.88 19.5 12 19.5 12 19.5 C 12 19.5 5.12 19.5 3.405 19.052 C 2.456 18.803 1.715 18.082 1.46 17.158 C 1 15.487 1 12 1 12 C 1 12 1 8.513 1.46 6.842 C 1.715 5.918 2.456 5.197 3.405 4.948 C 5.12 4.5 12 4.5 12 4.5 C 12 4.5 18.88 4.5 20.595 4.948 C 21.544 5.197 22.285 5.918 22.54 6.842 C 22.998 8.513 23 12 23 12 Z M 9.798 14.359 C 9.798 14.742 10.21 14.983 10.543 14.795 L 14.738 12.436 C 15.078 12.245 15.078 11.756 14.738 11.564 L 10.543 9.205 C 10.21 9.018 9.798 9.259 9.798 9.641 Z" fill="rgb(255, 255, 255)"></path></svg>